<svg width="386" height="309" viewBox="0 0 386 309" fill="none" xmlns="http://www.w3.org/2000/svg">
<path d="M2.35059 238.126L53.8391 266.753V306.322L2.35059 277.695V238.126Z" fill="#8C9EFB"/>
<path d="M38.9885 27.9712L90.477 56.6954L134.833 31.0977L83.2471 2.37354L38.9885 27.9712Z" fill="#8C9EFB"/>
<path d="M61.4598 264.115C64.0977 263.236 67.0287 261.868 70.1552 260.012C77.4827 255.81 82.6609 250.242 85.7873 243.402C88.9138 236.563 90.477 226.989 90.477 214.678V56.6955L83.2471 52.6898L38.8908 28.0691V186.052C38.8908 198.362 37.3276 207.937 34.2011 214.776C31.0747 221.615 25.8965 227.184 18.569 231.385C15.4425 233.241 12.5115 234.512 9.87356 235.489C7.23563 236.368 4.6954 237.247 2.25287 238.127L38.5 258.253L53.8391 266.753C56.2816 265.874 58.8218 264.994 61.4598 264.115Z" fill="#8C9EFB"/>
<path d="M4.40228 252.293C4.40228 252.293 20.523 247.994 30.0977 241.546C39.6724 235.097 43.1896 228.552 43.1896 228.552L86.9598 254.247L52.3736 278.184L4.40228 252.293Z" fill="#F2F4F4"/>
<path d="M38.9885 45.46L90.477 74.0864L134.833 48.4887L83.2471 19.8623L38.9885 45.46Z" fill="#F2F4F4"/>
<path d="M83.2471 0.0288086L36.8391 26.7989V185.954C36.8391 197.874 35.3736 207.253 32.3448 213.897C29.4138 220.345 24.431 225.621 17.592 229.627C14.6609 231.385 11.8276 232.655 9.28736 233.535C6.94253 234.316 4.69541 235.098 2.54599 235.879L0.298859 236.661V239.299V278.868L53.6437 308.569C53.6437 308.569 70.1552 302.023 77.7759 297.627C97.4138 286.293 112.264 270.954 122.132 252C131.902 233.046 136.885 210.477 136.885 184.684V29.8277L83.2471 0.0288086ZM83.3448 4.71847L130.73 31.0978L128.874 32.1725L90.5747 54.253L66.7356 41.0633L43.092 27.9713L83.3448 4.71847ZM51.7874 302.805L4.3046 276.425V241.546L51.7874 267.925V302.805ZM7.33334 238.517C8.40805 238.127 9.48277 237.736 10.6552 237.443C13.4885 236.466 16.5173 235.098 19.7414 233.241C27.3621 228.845 32.931 222.885 36.2529 215.655C39.477 208.523 41.1379 198.558 41.1379 186.052V31.4886L88.6207 57.8679V214.678C88.6207 226.598 87.1552 235.977 84.1264 242.621C81.1954 249.069 76.2126 254.345 69.3736 258.351C67.9081 259.23 66.4425 260.012 65.0747 260.598C63.7069 261.282 62.3391 261.77 61.069 262.259C60.8736 262.356 60.7759 262.356 60.5805 262.454C58.431 263.236 56.2816 263.92 54.3276 264.604L7.33334 238.517Z" fill="#2E2E35"/>
<path d="M359.839 112.873C344.305 86.9827 322.224 65.7815 293.598 49.27L231.948 13.7068L177.04 46.1436C177.04 46.1436 217.098 80.6321 218.172 81.316C218.466 81.5114 224.23 85.5171 232.046 91.0861L280.213 126.259L299.46 211.942L302.293 259.23L303.759 297.04L358.667 264.603C375.08 255.517 383.19 233.73 383.19 199.437C383.19 167.684 375.471 138.764 359.839 112.873Z" fill="#8C9EFB"/>
<path d="M301.805 300.753L300.241 259.523L297.408 212.334L278.356 127.724L230.874 92.9428C223.057 87.4715 217.391 83.4658 217.098 83.1726C216.023 82.4887 185.247 55.914 175.868 47.8048L175.184 47.2186V45.0692L232.144 11.3623L294.868 47.5117C323.592 64.1209 346.161 85.7129 361.793 111.799C377.425 137.885 385.437 167.391 385.437 199.535C385.437 234.512 376.839 257.081 359.839 266.46L301.805 300.753ZM180.557 46.5347C196.287 60.1152 218.27 78.8738 219.345 79.7531C219.638 79.9485 225.305 83.9543 233.121 89.5232L281.874 125.184L301.316 211.65L304.247 259.23L305.517 293.621L357.494 262.943C373.126 254.247 381.04 232.948 381.04 199.535C381.04 168.173 373.322 139.351 357.983 113.949C342.644 88.5462 320.661 67.3451 292.523 51.1267L231.948 16.1497L180.557 46.5347Z" fill="#2E2E35"/>
<path d="M209.282 106.719L212.017 247.799L262.333 275.839L294.477 260.402L302 205.69C302 205.69 271.908 135.443 271.517 134.368C271.126 133.293 216.414 97.0461 216.414 97.0461L209.282 106.719Z" fill="#2E2E35"/>
<path d="M225.207 234.121L294.672 190.937L302 230.311L252.661 267.632L219.931 245.747L225.207 234.121Z" fill="#8C9EFB"/>
<path d="M252.759 270.173L217.293 246.431L223.546 232.656L296.04 187.518L304.247 231.092L252.759 270.173ZM222.471 244.966L252.563 265.092L299.753 229.431L293.109 194.259L226.77 235.587L222.471 244.966Z" fill="#2E2E35"/>
<path d="M244.649 232.753C244.649 232.753 261.747 245.259 275.621 243.696C289.494 242.132 291.253 209.012 291.253 209.012L285.098 207.448L244.649 232.753Z" fill="#F2F4F4"/>
<path d="M328.282 231.971C328.282 266.264 320.075 288.052 303.759 297.138C287.345 306.224 264.385 302.218 234.782 285.121L177.138 251.805V46.2415L238.787 81.8047C267.414 98.3162 289.494 119.517 305.029 145.408C320.466 171.201 328.282 200.121 328.282 231.971ZM278.356 205.104C278.356 186.247 275.132 170.42 268.684 157.621C262.236 144.822 252.466 134.563 239.276 126.943L225.305 118.833V234.023L236.052 240.178C250.707 248.581 261.356 249.948 268.195 244.086C274.937 238.322 278.356 225.328 278.356 205.104Z" fill="#8C9EFB"/>
<path d="M327.695 213.897L382.408 182.535L383.19 219.661L374.299 247.799L362.966 263.04L312.649 291.569L323.299 273.494L328.282 242.328L327.695 213.897Z" fill="#2E2E35"/>
<path d="M284.218 131.73L339.224 99.2933C326.621 85.8105 311.77 74.0864 294.379 64.0232L232.73 28.46L177.822 60.8967L239.471 96.46C256.764 106.425 271.713 118.247 284.218 131.73Z" fill="#F2F4F4"/>
<path d="M309.328 170.908L364.626 139.155C362.966 135.833 361.109 132.512 359.155 129.288C355.443 123.035 351.241 117.075 346.747 111.408L291.741 143.845C296.236 149.512 300.437 155.471 304.149 161.724C306.103 164.851 307.764 167.879 309.328 170.908Z" fill="#F2F4F4"/>
<path d="M284.316 303.977C270.149 303.977 253.247 298.311 233.609 286.977L174.988 253.075V45.0691L177.04 43.8967L239.764 80.0462C268.489 96.6553 291.057 118.247 306.69 144.334C322.322 170.42 330.333 199.925 330.333 232.069C330.333 267.046 321.736 289.615 304.736 298.994C298.776 302.316 291.937 303.977 284.316 303.977ZM179.092 250.73L235.661 283.362C264.483 299.971 287.052 304.075 302.684 295.379C318.316 286.684 326.23 265.385 326.23 231.971C326.23 200.609 318.511 171.788 303.172 146.385C287.833 120.983 265.851 99.7818 237.713 83.5634L179.092 49.7588V250.73ZM257.741 249.851C251.391 249.851 243.77 247.311 234.879 242.132L223.155 235.391V115.316L240.253 125.184C253.736 132.902 263.897 143.552 270.443 156.644C276.989 169.736 280.31 185.954 280.31 205.104C280.31 226.109 276.695 239.397 269.368 245.747C266.241 248.483 262.333 249.851 257.741 249.851ZM227.259 232.948L236.931 238.517C250.609 246.431 260.672 247.799 266.73 242.621C273.08 237.15 276.207 224.546 276.207 205.104C276.207 186.638 272.983 171.006 266.73 158.5C260.477 146.092 250.805 136.029 238.103 128.701L227.161 122.351V232.948H227.259Z" fill="#2E2E35"/>
</svg>
