<svg width="80" height="111" viewBox="0 0 80 111" fill="none" xmlns="http://www.w3.org/2000/svg">
<path d="M69 28.8037L25 3.40365C22.5 2.00365 20.2 1.80365 18.5 2.60365L4.1 11.5037C4 11.5037 4 11.6037 4 11.7037C4.6 13.0037 10.6 25.5037 11.2 27.8037C11.4 28.8037 13.3 38.3037 15.5 49.5037V55.1037C15.5 58.2037 16.6 61.7037 18.5 64.7037C20.8 76.3037 22.7 86.2037 22.7 86.5037L42.9 93.3036H44.3C44.4 93.3036 44.4 93.2037 44.4 93.1037L43.3 90.0037C43 88.5037 42.8 86.8036 42.7 85.1037L61.7 106.204C61.8 106.304 61.8 106.304 61.9 106.204L75.8 97.6037C75.9 97.6037 75.9 97.5037 76 97.5037C77.6 96.5037 78.6 94.4036 78.6 91.4036V45.4037C78.6 39.3037 74.3 31.9037 69 28.8037Z" fill="white"/>
<path d="M61.8 107.704C61.4 107.704 60.9 107.504 60.6 107.204L44.6 89.4036C44.6 89.5036 44.6 89.6036 44.7 89.7036L45.8 92.7036C46.1 93.4036 45.8 94.2036 45.1 94.6036L44.7 94.7036H42.7L21.6 87.7036L21.3 86.8036C21.3 86.5036 19.4 76.8036 17.1 65.2036C15.1 61.8036 14.1 58.2036 14.1 55.0036V49.6036C11.5 36.1036 10.1 28.9036 9.90004 28.1036C9.50004 26.6036 6.10004 19.1036 2.80004 12.2036C2.50004 11.5036 2.70004 10.6036 3.40004 10.2036L18.6 0.903644L18.7 1.00364C20.8 0.303644 23.2 0.703644 25.7 2.10364L69.7 27.5036C75.4 30.8036 80 38.8036 80 45.3036V91.4036C80 94.7036 78.8 97.3036 76.7 98.7036C76.6 98.8036 76.5 98.8036 76.4 98.9036L62.6 107.404C62.4 107.604 62.1 107.704 61.8 107.704ZM41.1 81.2036L62.1 104.504L75.1 96.5036L76.1 97.6036L75.4 96.4036C76.7 95.6036 77.4 93.9036 77.4 91.5036V45.4036C77.4 39.8036 73.3 32.8036 68.5 30.0036L24.5 4.60364C22.5 3.50364 20.7 3.20364 19.3 3.90364H19.2L5.90004 12.1036C8.10004 16.7036 12.2 25.4036 12.7 27.5036C12.9 28.4036 14.3 35.5036 17 49.2036V49.5036V55.1036C17 57.8036 18 61.1036 19.8 64.0036L20 64.3036L20.1 64.7036C22 74.4036 23.6 83.0036 24.1 85.6036L42.4 91.7036L41.9 90.2036C41.6 88.5036 41.4 86.8036 41.3 85.1036L41.1 81.2036Z" fill="#2E2E35"/>
<path d="M69 28.8039L26.4 4.20386L5.69995 17.2039L51.1999 41.3039L60.5 42.8039L74.8 34.3039C73.1 32.0039 71.1 30.1039 69 28.8039Z" fill="white"/>
<path d="M60.7 44.3038L50.5 42.6038L2.80005 17.3038L26.4001 2.60376L69.7 27.6038C71.9 28.9038 74.1001 30.9038 75.9001 33.5038L76.8 34.7038L60.7 44.3038ZM72.7 33.9038C71.4 32.2038 69.9 30.9038 68.3 30.0038L26.4001 5.80376L8.40005 17.1038L51.6 40.0038L60.1 41.4038" fill="#2E2E35"/>
<path d="M64.0001 50.4036C64.0001 50.4036 46.2001 54.6036 45.0001 55.0036C44.0001 55.4036 26.6001 69.4036 20.6001 76.0036C21.8001 82.2036 39.4001 93.0036 39.4001 93.0036L46.1001 109.204L61.2001 100.304L61.6001 106.204C61.7001 106.204 61.7001 106.204 61.8001 106.204L75.7001 97.6036C75.8001 97.6036 75.8001 97.5036 75.9001 97.5036C77.5001 96.5036 78.5001 94.4036 78.5001 91.4036V45.4036C78.5001 44.3036 78.4001 43.1036 78.1001 41.9036L64.0001 50.4036Z" fill="#2E2E35"/>
<path d="M10.8999 12.1037L54.9999 37.6037C60.2999 40.6037 64.4999 48.0037 64.4999 54.1037V100.304C64.4999 106.404 60.1999 108.804 54.9999 105.804L49.9999 102.904C49.0999 102.404 48.2999 102.704 48.0999 103.604C47.5999 106.404 45.5999 111.404 38.3999 108.504C36.9999 107.904 35.8999 105.804 36.2999 104.404C36.7999 102.804 37.2999 100.504 37.2999 97.8037C37.2999 96.6037 36.3999 95.1037 35.3999 94.5037L10.8999 80.3037C5.5999 77.3037 1.3999 69.9037 1.3999 63.8037V17.6037C1.3999 11.6037 5.5999 9.10372 10.8999 12.1037Z" fill="#F25A22"/>
<path d="M42.3 110.704C41 110.704 39.5 110.404 37.8 109.704C35.7 108.804 34.3 105.904 34.9 103.904C35.3 102.504 35.8 100.404 35.9 97.7037C35.9 97.0037 35.3 96.0037 34.7 95.6037L10.2 81.5037C4.4 78.2037 0 70.4037 0 63.8037V17.6037C0 14.1037 1.2 11.5037 3.5 10.2037C5.8 8.90373 8.6 9.10373 11.6 10.9037L55.7 36.4037C61.4 39.7037 65.9 47.5037 65.9 54.1037V100.304C65.9 103.804 64.7 106.404 62.4 107.704C60.1 109.004 57.3 108.804 54.3 107.004L49.4 104.204C48.9 106.204 47.9 108.704 45.6 110.004C44.6 110.404 43.5 110.704 42.3 110.704ZM6.6 12.2037C5.9 12.2037 5.3 12.3037 4.8 12.6037C3.5 13.4037 2.7 15.1037 2.7 17.5037V63.7037C2.7 69.3037 6.7 76.2037 11.5 79.0037L36.1 93.2037C37.6 94.1037 38.7 96.0037 38.7 97.7037C38.7 100.704 38.1 103.104 37.6 104.704C37.4 105.304 38.1 106.704 38.9 107.004C41.1 107.904 42.9 108.004 44.2 107.404C45.8 106.504 46.5 104.404 46.7 103.204C46.9 102.304 47.4 101.704 48.1 101.304C48.9 100.904 49.8 101.004 50.7 101.504L55.7 104.404C57.8 105.604 59.7 105.804 61 105.104C62.3 104.304 63.1 102.604 63.1 100.204V54.1037C63.1 48.5037 59.1 41.6037 54.3 38.8037L10.2 13.4037C8.9 12.6037 7.7 12.2037 6.6 12.2037Z" fill="#2E2E35"/>
<path d="M19.2001 48.4038C19.2001 48.4038 15.7001 48.6038 16.3001 56.7038C16.9001 64.8038 19.9001 68.6038 19.9001 68.6038L26.6001 70.9038C26.6001 70.9038 26.7001 71.1038 27.0001 71.5038C31.3001 77.6038 37.1001 80.9038 41.4001 79.7038L44.0001 79.0038L43.5001 61.5038C43.5001 61.5038 39.7001 58.4038 38.0001 55.1038C36.2001 51.8038 38.6001 51.4038 38.4001 47.5038C38.2001 43.6038 35.3001 36.6038 32.3001 36.6038C29.2001 36.6038 30.6001 40.0038 31.2001 43.1038C31.8001 46.3038 30.2001 49.2038 27.9001 50.4038C25.6001 51.6038 24.9001 52.9038 24.9001 52.9038C24.9001 52.9038 23.5001 50.4038 19.2001 48.4038Z" fill="white"/>
<path d="M39.5001 81.4037C35.0001 81.4037 29.7001 78.0037 25.8001 72.4037C25.7001 72.3037 25.7001 72.3037 25.7001 72.2037L19.0001 69.8037L18.7001 69.5037C18.6001 69.3037 15.4001 65.3037 14.8001 56.8037C14.5001 52.8037 15.1001 50.0037 16.6001 48.3037C17.7001 47.1037 18.8001 46.9037 19.1001 46.9037H19.5001L19.8001 47.0037C22.3001 48.2037 23.9001 49.5037 24.9001 50.5037C25.4001 50.0037 26.2001 49.5037 27.2001 48.9037C28.9001 48.0037 30.3001 45.8037 29.8001 43.2037C29.7001 42.7037 29.6001 42.3037 29.5001 41.8037C29.0001 39.6037 28.5001 37.5037 29.6001 36.1037C30.2001 35.4037 31.0001 35.0037 32.3001 35.0037C36.6001 35.1037 39.6001 43.1037 39.8001 47.3037C39.9001 49.2037 39.4001 50.5037 39.1001 51.4037C38.7001 52.5037 38.5001 52.9037 39.2001 54.3037C40.8001 57.3037 44.4001 60.2037 44.4001 60.3037L44.9001 60.7037L45.4001 79.9037L41.8001 80.9037C41.0001 81.3037 40.3001 81.4037 39.5001 81.4037ZM20.7001 67.5037L27.5001 69.8037L27.8001 70.2037C27.8001 70.2037 27.9001 70.4037 28.2001 70.7037C32.1001 76.2037 37.3001 79.4037 41.0001 78.3037L42.5001 77.9037L42.0001 62.2037C40.9001 61.2037 38.1001 58.6037 36.6001 55.8037C35.3001 53.3037 35.8001 51.9037 36.3001 50.6037C36.6001 49.8037 36.9001 49.0037 36.9001 47.6037C36.8001 43.8037 33.9001 38.1037 32.2001 38.0037C31.8001 38.0037 31.7001 38.1037 31.7001 38.1037C31.5001 38.5037 31.9001 40.3037 32.2001 41.4037C32.3001 41.9037 32.4001 42.4037 32.5001 42.9037C33.2001 46.4037 31.5001 50.1037 28.4001 51.7037C26.6001 52.6037 26.0001 53.6037 26.0001 53.6037L24.8001 55.9037L23.5001 53.6037C23.5001 53.6037 22.4001 51.7037 19.0001 50.0037C18.3001 50.4037 17.3001 52.1037 17.6001 56.7037C18.1001 62.9037 20.1001 66.5037 20.7001 67.5037Z" fill="#2E2E35"/>
<path d="M25.4002 71.7036C24.1002 69.2036 23.8002 65.5036 23.7002 65.4036L26.5002 65.2036C26.5002 65.2036 26.8002 68.5036 27.8002 70.4036L25.4002 71.7036Z" fill="#2E2E35"/>
<path d="M25.7001 56.5037L22.9001 56.4037C23.0001 53.0037 23.5001 52.3037 23.7001 52.0037L26.0001 53.7037C25.9001 53.9037 25.8001 55.3037 25.7001 56.5037Z" fill="#2E2E35"/>
<path d="M47.2 70.0039L38.7001 65.1039C37.4001 64.3039 36.3 62.3039 36.3 60.5039C36.3 58.7039 37.4001 57.9039 38.7001 58.7039L47.2 63.6039C48.5 64.4039 49.6 66.4039 49.6 68.2039C49.6 70.0039 48.5 70.8039 47.2 70.0039Z" fill="white"/>
<path d="M48.2001 71.7038C47.7001 71.7038 47.1001 71.5038 46.5001 71.2038L38.0001 66.3038C36.2001 65.3038 34.9001 62.8038 34.9001 60.5038C34.9001 59.0038 35.5001 57.9038 36.4001 57.3038C37.3001 56.8038 38.4001 56.8038 39.4001 57.4038L47.9001 62.3038C49.7001 63.3038 51.0001 65.8038 51.0001 68.1038C51.0001 69.6038 50.4001 70.7038 49.5001 71.3038C49.1001 71.6038 48.6001 71.7038 48.2001 71.7038ZM47.9001 68.8038C48.0001 68.9038 48.1001 68.9038 48.2001 68.9038C48.1001 68.9038 48.3001 68.7038 48.3001 68.2038C48.3001 66.8038 47.4001 65.3038 46.6001 64.8038L38.0001 59.9038C37.9001 59.8038 37.8001 59.8038 37.7001 59.8038C37.8001 59.8038 37.6001 60.0038 37.6001 60.5038C37.6001 61.9038 38.5001 63.4038 39.3001 63.9038L47.9001 68.8038Z" fill="#2E2E35"/>
<path d="M46.5999 75.0038L39.2 70.7038C38.1 70.1038 37.2 68.4038 37.2 66.9038C37.2 65.4038 38.1 64.8038 39.2 65.4038L46.5999 69.7038C47.6999 70.3038 48.5999 72.0038 48.5999 73.5038C48.5999 74.9038 47.6999 75.6038 46.5999 75.0038Z" fill="white"/>
<path d="M47.4001 76.6036C46.9001 76.6036 46.4001 76.5036 45.9001 76.2036L38.5 71.9036C37 71.0036 35.8 68.8036 35.8 66.9036C35.8 65.6036 36.3001 64.6036 37.2001 64.1036C38.0001 63.6036 39 63.7036 40 64.2036L47.4001 68.5036C48.9001 69.4036 50.1 71.6036 50.1 73.5036C50.1 74.8036 49.6 75.8036 48.7 76.3036C48.3 76.5036 47.8001 76.6036 47.4001 76.6036ZM38.7001 66.7036C38.7001 66.8036 38.7001 66.8036 38.7001 66.9036C38.7001 67.9036 39.4 69.1036 40 69.5036L47.2 73.7036C47.2 73.6036 47.2 73.6036 47.2 73.5036C47.2 72.5036 46.5001 71.3036 45.9001 70.9036L38.7001 66.7036Z" fill="#2E2E35"/>
<path d="M45.8001 79.8038L39.3 76.0038C38.2 75.4038 37.3 73.7038 37.3 72.2038C37.3 70.7038 38.2 70.1038 39.3 70.7038L45.8001 74.5038C46.9001 75.1038 47.8001 76.8038 47.8001 78.3038C47.8001 79.8038 46.9001 80.4038 45.8001 79.8038Z" fill="white"/>
<path d="M46.6001 81.5038C46.1001 81.5038 45.6001 81.4038 45.1001 81.1038L38.6001 77.3038C37.1001 76.4038 35.9001 74.3038 35.9001 72.3038C35.9001 71.0038 36.4001 70.0038 37.3001 69.5038C38.1001 69.0038 39.1001 69.1038 40.0001 69.6038L46.5001 73.4038C48.0001 74.3038 49.2001 76.4038 49.2001 78.4038C49.2001 79.7038 48.7001 80.7038 47.8001 81.2038C47.4001 81.4038 47.0001 81.5038 46.6001 81.5038ZM38.7001 72.0038C38.7001 72.1038 38.7001 72.1038 38.7001 72.2038C38.7001 73.2038 39.4001 74.4038 40.0001 74.8038L46.4001 78.5038C46.4001 78.4038 46.4001 78.4038 46.4001 78.3038C46.4001 77.3038 45.7001 76.1038 45.1001 75.7038L38.7001 72.0038Z" fill="#2E2E35"/>
<path d="M44.6 84.5038L40 81.8038C38.9 81.2038 38 79.5038 38 78.0038C38 76.5038 38.9 75.9038 40 76.5038L44.6 79.2038C45.7 79.8038 46.6 81.5038 46.6 83.0038C46.6 84.4038 45.7 85.1038 44.6 84.5038Z" fill="white"/>
<path d="M45.4001 86.1037C44.9001 86.1037 44.4001 86.0037 43.9001 85.7037L39.3001 83.0037C37.8001 82.1037 36.6001 80.0037 36.6001 78.0037C36.6001 76.7037 37.1001 75.7037 38.0001 75.2037C38.8001 74.7037 39.8001 74.8037 40.7001 75.3037L45.3001 78.0037C46.8001 78.9037 48.0001 81.0037 48.0001 83.0037C48.0001 84.3037 47.5001 85.3037 46.6001 85.8037C46.3001 86.0037 45.9001 86.1037 45.4001 86.1037ZM39.5001 77.8037C39.5001 77.9037 39.5001 77.9037 39.5001 78.0037C39.5001 79.0037 40.2001 80.2037 40.8001 80.6037L45.3001 83.2037C45.3001 83.1037 45.3001 83.1037 45.3001 83.0037C45.3001 82.0037 44.6001 80.8037 44.0001 80.4037L39.5001 77.8037Z" fill="#2E2E35"/>
</svg>
